<svg width="20" height="21" viewBox="0 0 20 21" fill="none" xmlns="http://www.w3.org/2000/svg">
<path d="M13.3333 13.1377H6.66667C4.82572 13.1377 3.33333 14.6301 3.33333 16.471V18.1377H16.6667V16.471C16.6667 14.6301 15.1743 13.1377 13.3333 13.1377Z" fill="#374151"/>
<path d="M10 9.80436C11.8409 9.80436 13.3333 8.31198 13.3333 6.47103C13.3333 4.63008 11.8409 3.1377 10 3.1377C8.15905 3.1377 6.66667 4.63008 6.66667 6.47103C6.66667 8.31198 8.15905 9.80436 10 9.80436Z" fill="#374151"/>
<path d="M19.1667 8.1377L16.5001 10.8043L15 9.30433M6.66667 13.1377H13.3333C15.1743 13.1377 16.6667 14.6301 16.6667 16.471V18.1377H3.33333V16.471C3.33333 14.6301 4.82572 13.1377 6.66667 13.1377ZM13.3333 6.47103C13.3333 8.31198 11.8409 9.80436 10 9.80436C8.15905 9.80436 6.66667 8.31198 6.66667 6.47103C6.66667 4.63008 8.15905 3.1377 10 3.1377C11.8409 3.1377 13.3333 4.63008 13.3333 6.47103Z" stroke="#374151" stroke-width="2" stroke-linecap="round" stroke-linejoin="round"/>
</svg>
