<svg width="18" height="20" viewBox="0 0 18 20" fill="none" xmlns="http://www.w3.org/2000/svg">
<g clip-path="url(#clip0_95_465)">
<path d="M3.65103 1.63655V2.85356H1.82552C0.817679 2.85356 0 3.67124 0 4.67908V6.5046H17.0382V4.67908C17.0382 3.67124 16.2205 2.85356 15.2126 2.85356H13.3871V1.63655C13.3871 0.963392 12.8433 0.41954 12.1701 0.41954C11.497 0.41954 10.9531 0.963392 10.9531 1.63655V2.85356H6.08506V1.63655C6.08506 0.963392 5.5412 0.41954 4.86804 0.41954C4.19489 0.41954 3.65103 0.963392 3.65103 1.63655ZM17.0382 7.72161H0V18.0662C0 19.074 0.817679 19.8917 1.82552 19.8917H15.2126C16.2205 19.8917 17.0382 19.074 17.0382 18.0662V7.72161Z" fill="#374151"/>
</g>
<defs>
<clipPath id="clip0_95_465">
<path d="M0 0.419998H17.0382V19.8922H0V0.419998Z" fill="white"/>
</clipPath>
</defs>
</svg>
