<svg width="22" height="21" viewBox="0 0 22 21" fill="none" xmlns="http://www.w3.org/2000/svg">
<g clip-path="url(#clip0_133_5122)">
<path d="M21.9833 10.3493C21.9833 11.0361 21.411 11.5741 20.7624 11.5741H19.5414L19.5681 17.6866C19.5681 17.7897 19.5605 17.8927 19.549 17.9957V18.61C19.549 19.4532 18.866 20.1362 18.0228 20.1362H17.4123C17.3703 20.1362 17.3284 20.1362 17.2864 20.1324C17.233 20.1362 17.1796 20.1362 17.1261 20.1362H15.8861H14.9703C14.1271 20.1362 13.4441 19.4532 13.4441 18.61V17.6943V15.2523C13.4441 14.577 12.8985 14.0313 12.2231 14.0313H9.78119C9.10583 14.0313 8.56021 14.577 8.56021 15.2523V17.6943V18.61C8.56021 19.4532 7.87723 20.1362 7.03399 20.1362H6.11826H4.90109C4.84386 20.1362 4.78663 20.1324 4.72939 20.1286C4.68361 20.1324 4.63782 20.1362 4.59203 20.1362H3.98154C3.13831 20.1362 2.45532 19.4532 2.45532 18.61V14.3366C2.45532 14.3022 2.45532 14.2641 2.45914 14.2298V11.5741H1.23434C0.547544 11.5741 0.0133667 11.0399 0.0133667 10.3493C0.0133667 10.0059 0.127833 9.70069 0.394922 9.4336L10.178 0.90583C10.4451 0.638741 10.7503 0.600586 11.0174 0.600586C11.2845 0.600586 11.5898 0.676897 11.8187 0.867675L21.5636 9.4336C21.8689 9.70069 22.0215 10.0059 21.9833 10.3493Z" fill="#374151"/>
</g>
<defs>
<clipPath id="clip0_133_5122">
<path d="M0.0133667 0.600586H21.991V20.1362H0.0133667V0.600586Z" fill="white"/>
</clipPath>
</defs>
</svg>
