<svg width="20" height="18" viewBox="0 0 20 18" fill="none" xmlns="http://www.w3.org/2000/svg">
<path d="M-0.0067749 0.324341H19.4831V17.6487H-0.0067749V0.324341Z" stroke="#E5E7EB"/>
<g clip-path="url(#clip0_86_748)">
<path d="M19.4763 8.96958C19.4763 9.57864 18.9688 10.0557 18.3935 10.0557H17.3108L17.3345 15.4763C17.3345 15.5677 17.3277 15.6591 17.3175 15.7504V16.2952C17.3175 17.043 16.7119 17.6487 15.9641 17.6487H15.4227C15.3855 17.6487 15.3483 17.6487 15.311 17.6453C15.2637 17.6487 15.2163 17.6487 15.1689 17.6487H14.0692H13.2572C12.5094 17.6487 11.9037 17.043 11.9037 16.2952V15.4831V13.3176C11.9037 12.7187 11.4198 12.2348 10.8209 12.2348H8.65538C8.05648 12.2348 7.57261 12.7187 7.57261 13.3176V15.4831V16.2952C7.57261 17.043 6.96694 17.6487 6.21915 17.6487H5.40707H4.32769C4.27693 17.6487 4.22618 17.6453 4.17542 17.6419C4.13482 17.6453 4.09422 17.6487 4.05361 17.6487H3.51223C2.76444 17.6487 2.15876 17.043 2.15876 16.2952V12.5055C2.15876 12.475 2.15876 12.4412 2.16215 12.4108V10.0557H1.07599C0.466937 10.0557 -0.0067749 9.58202 -0.0067749 8.96958C-0.0067749 8.66505 0.0947348 8.39436 0.331591 8.1575L9.00728 0.595033C9.24414 0.358177 9.51483 0.324341 9.75169 0.324341C9.98854 0.324341 10.2592 0.392014 10.4623 0.561197L19.1041 8.1575C19.3748 8.39436 19.5102 8.66505 19.4763 8.96958Z" fill="#374151"/>
</g>
<defs>
<clipPath id="clip0_86_748">
<path d="M-0.0067749 0.324341H19.4831V17.6487H-0.0067749V0.324341Z" fill="white"/>
</clipPath>
</defs>
</svg>
