<svg width="21" height="20" viewBox="0 0 21 20" fill="none" xmlns="http://www.w3.org/2000/svg">
<g clip-path="url(#clip0_95_460)">
<path d="M6.3888 1.73164C6.76532 2.07012 6.79574 2.6444 6.45726 3.02091L3.71898 6.06344C3.55165 6.24979 3.31585 6.36008 3.06484 6.36389C2.81383 6.36769 2.57423 6.27261 2.39548 6.09767L0.870418 4.5764C0.516724 4.21891 0.516724 3.64083 0.870418 3.28333C1.22411 2.92583 1.80599 2.92583 2.15969 3.28333L3.00019 4.12383L5.09573 1.79629C5.43421 1.41978 6.00849 1.38935 6.385 1.72784L6.3888 1.73164ZM6.3888 7.81669C6.76532 8.15518 6.79574 8.72945 6.45726 9.10597L3.71898 12.1485C3.55165 12.3348 3.31585 12.4451 3.06484 12.4489C2.81383 12.4527 2.57423 12.3577 2.39548 12.1827L0.870418 10.6615C0.512921 10.304 0.512921 9.72588 0.870418 9.37219C1.22791 9.01849 1.80599 9.01469 2.15969 9.37219L3.00019 10.2127L5.09573 7.88515C5.43421 7.50864 6.00849 7.47821 6.385 7.81669H6.3888ZM9.12327 3.92987C9.12327 3.25671 9.66713 2.71285 10.3403 2.71285H18.8594C19.5325 2.71285 20.0764 3.25671 20.0764 3.92987C20.0764 4.60302 19.5325 5.14688 18.8594 5.14688H10.3403C9.66713 5.14688 9.12327 4.60302 9.12327 3.92987ZM9.12327 10.0149C9.12327 9.34176 9.66713 8.79791 10.3403 8.79791H18.8594C19.5325 8.79791 20.0764 9.34176 20.0764 10.0149C20.0764 10.6881 19.5325 11.2319 18.8594 11.2319H10.3403C9.66713 11.2319 9.12327 10.6881 9.12327 10.0149ZM6.68925 16.1C6.68925 15.4268 7.2331 14.883 7.90626 14.883H18.8594C19.5325 14.883 20.0764 15.4268 20.0764 16.1C20.0764 16.7731 19.5325 17.317 18.8594 17.317H7.90626C7.2331 17.317 6.68925 16.7731 6.68925 16.1ZM2.42971 14.2745C2.91387 14.2745 3.3782 14.4668 3.72055 14.8091C4.0629 15.1515 4.25523 15.6158 4.25523 16.1C4.25523 16.5841 4.0629 17.0485 3.72055 17.3908C3.3782 17.7332 2.91387 17.9255 2.42971 17.9255C1.94556 17.9255 1.48123 17.7332 1.13888 17.3908C0.796527 17.0485 0.604196 16.5841 0.604196 16.1C0.604196 15.6158 0.796527 15.1515 1.13888 14.8091C1.48123 14.4668 1.94556 14.2745 2.42971 14.2745Z" fill="#374151"/>
</g>
<defs>
<clipPath id="clip0_95_460">
<path d="M0.60437 0.280014H20.0765V19.7522H0.60437V0.280014Z" fill="white"/>
</clipPath>
</defs>
</svg>
