<svg width="20" height="20" viewBox="0 0 20 20" fill="none" xmlns="http://www.w3.org/2000/svg">
<g clip-path="url(#clip0_95_454)">
<g clip-path="url(#clip1_95_454)">
<path d="M17.0383 10.1839C17.0383 9.22497 16.8494 8.27544 16.4824 7.38951C16.1155 6.50358 15.5776 5.69861 14.8996 5.02055C14.2215 4.34249 13.4165 3.80462 12.5306 3.43766C11.6447 3.0707 10.6951 2.88182 9.73621 2.88182C8.77729 2.88182 7.82776 3.0707 6.94183 3.43766C6.0559 3.80462 5.25093 4.34249 4.57287 5.02055C3.89481 5.69861 3.35694 6.50358 2.98998 7.38951C2.62302 8.27544 2.43414 9.22497 2.43414 10.1839C2.43414 11.1428 2.62302 12.0923 2.98998 12.9783C3.35694 13.8642 3.89481 14.6692 4.57287 15.3472C5.25093 16.0253 6.0559 16.5632 6.94183 16.9301C7.82776 17.2971 8.77729 17.486 9.73621 17.486C10.6951 17.486 11.6447 17.2971 12.5306 16.9301C13.4165 16.5632 14.2215 16.0253 14.8996 15.3472C15.5776 14.6692 16.1155 13.8642 16.4824 12.9783C16.8494 12.0923 17.0383 11.1428 17.0383 10.1839ZM0.00012207 10.1839C0.00012207 7.60172 1.02589 5.12531 2.85176 3.29943C4.67763 1.47356 7.15404 0.4478 9.73621 0.4478C12.3184 0.4478 14.7948 1.47356 16.6207 3.29943C18.4465 5.12531 19.4723 7.60172 19.4723 10.1839C19.4723 12.7661 18.4465 15.2425 16.6207 17.0683C14.7948 18.8942 12.3184 19.92 9.73621 19.92C7.15404 19.92 4.67763 18.8942 2.85176 17.0683C1.02589 15.2425 0.00012207 12.7661 0.00012207 10.1839ZM9.73621 13.2264C10.5431 13.2264 11.317 12.9059 11.8876 12.3353C12.4582 11.7647 12.7787 10.9908 12.7787 10.1839C12.7787 9.37696 12.4582 8.60308 11.8876 8.0325C11.317 7.46191 10.5431 7.14136 9.73621 7.14136C8.92928 7.14136 8.1554 7.46191 7.58482 8.0325C7.01424 8.60308 6.69368 9.37696 6.69368 10.1839C6.69368 10.9908 7.01424 11.7647 7.58482 12.3353C8.1554 12.9059 8.92928 13.2264 9.73621 13.2264ZM9.73621 4.70734C11.1887 4.70734 12.5817 5.28433 13.6087 6.31138C14.6358 7.33844 15.2128 8.73142 15.2128 10.1839C15.2128 11.6364 14.6358 13.0293 13.6087 14.0564C12.5817 15.0834 11.1887 15.6604 9.73621 15.6604C8.28374 15.6604 6.89076 15.0834 5.86371 14.0564C4.83665 13.0293 4.25966 11.6364 4.25966 10.1839C4.25966 8.73142 4.83665 7.33844 5.86371 6.31138C6.89076 5.28433 8.28374 4.70734 9.73621 4.70734ZM8.5192 10.1839C8.5192 9.86112 8.64742 9.55157 8.87566 9.32333C9.10389 9.0951 9.41344 8.96688 9.73621 8.96688C10.059 8.96688 10.3685 9.0951 10.5968 9.32333C10.825 9.55157 10.9532 9.86112 10.9532 10.1839C10.9532 10.5067 10.825 10.8162 10.5968 11.0444C10.3685 11.2727 10.059 11.4009 9.73621 11.4009C9.41344 11.4009 9.10389 11.2727 8.87566 11.0444C8.64742 10.8162 8.5192 10.5067 8.5192 10.1839Z" fill="#374151"/>
</g>
</g>
<defs>
<clipPath id="clip0_95_454">
<rect width="19.4722" height="19.4722" fill="white" transform="translate(0 0.447144)"/>
</clipPath>
<clipPath id="clip1_95_454">
<path d="M0 0.447144H19.4722V19.9193H0V0.447144Z" fill="white"/>
</clipPath>
</defs>
</svg>
