<svg width="22" height="20" viewBox="0 0 22 20" fill="none" xmlns="http://www.w3.org/2000/svg">
<path d="M10.99 7.816C12.1559 7.816 13.274 7.40427 14.0984 6.67137C14.9229 5.93848 15.386 4.94447 15.386 3.908C15.386 2.87153 14.9229 1.87752 14.0984 1.14463C13.274 0.411735 12.1559 0 10.99 0C9.82411 0 8.70597 0.411735 7.88156 1.14463C7.05715 1.87752 6.594 2.87153 6.594 3.908C6.594 4.94447 7.05715 5.93848 7.88156 6.67137C8.70597 7.40427 9.82411 7.816 10.99 7.816ZM3.8465 10.747C4.57518 10.747 5.27402 10.4897 5.78928 10.0316C6.30453 9.57355 6.594 8.95229 6.594 8.3045C6.594 7.65671 6.30453 7.03545 5.78928 6.57739C5.27402 6.11933 4.57518 5.862 3.8465 5.862C3.11782 5.862 2.41898 6.11933 1.90372 6.57739C1.38847 7.03545 1.099 7.65671 1.099 8.3045C1.099 8.95229 1.38847 9.57355 1.90372 10.0316C2.41898 10.4897 3.11782 10.747 3.8465 10.747ZM20.881 8.3045C20.881 8.95229 20.5915 9.57355 20.0763 10.0316C19.561 10.4897 18.8622 10.747 18.1335 10.747C17.4048 10.747 16.706 10.4897 16.1907 10.0316C15.6755 9.57355 15.386 8.95229 15.386 8.3045C15.386 7.65671 15.6755 7.03545 16.1907 6.57739C16.706 6.11933 17.4048 5.862 18.1335 5.862C18.8622 5.862 19.561 6.11933 20.0763 6.57739C20.5915 7.03545 20.881 7.65671 20.881 8.3045ZM10.99 8.793C12.4474 8.793 13.845 9.30767 14.8756 10.2238C15.9061 11.1399 16.485 12.3824 16.485 13.678V19.54H5.495V13.678C5.495 12.3824 6.07394 11.1399 7.10445 10.2238C8.13496 9.30767 9.53264 8.793 10.99 8.793ZM3.297 13.678C3.297 13.0009 3.4069 12.3473 3.61351 11.7299L3.42668 11.7435C2.48471 11.8355 1.61406 12.2333 0.981695 12.8608C0.34933 13.4882 -0.000245911 14.3011 1.29789e-07 15.1435V19.54H3.297V13.678ZM21.98 19.54V15.1435C21.9801 14.2724 21.6063 13.4341 20.9347 12.7997C20.2632 12.1653 19.3446 11.7826 18.3665 11.7299C18.572 12.3473 18.683 13.0009 18.683 13.678V19.54H21.98Z" fill="#374151"/>
</svg>
